<?xml version="1.0" encoding="utf-8"?>
<!-- Generator: Adobe Illustrator 23.0.6, SVG Export Plug-In . SVG Version: 6.00 Build 0)  -->
<svg version="1.1" id="レイヤー_1" xmlns="http://www.w3.org/2000/svg" xmlns:xlink="http://www.w3.org/1999/xlink" x="0px"
	 y="0px" viewBox="0 0 240 60" style="enable-background:new 0 0 240 60;" xml:space="preserve">
<style type="text/css">
	.st0{fill:#AAAAAA;}
	.st1{fill:#CAB975;}
</style>
<title>アートボード 1 のコピー 3</title>
<g>
	<path class="st0" d="M13.2,39.9c-0.9,2.4-2.6,8.1-3.6,11.5c2.5,0.1,5,0.4,7.5,0.8c0.2,0.1,0.4,0.3,0.5,0.5c0,0.3-0.2,0.6-0.6,0.7
		c0,0,0,0-0.1,0c-0.4,0-3.8-0.4-8.5-0.4c-4.2,0-7.3,0.4-7.7,0.4c-0.3,0.1-0.6-0.2-0.7-0.5c-0.1-0.3,0.2-0.6,0.5-0.7
		c1.8-0.4,3.6-0.7,5.4-0.8c2.8-4.8,6.7-14.3,10-22.6c1.9-4.6,3.5-8.9,4.3-10.7c-1.3-2.8-2.8-6-3.9-8.2c1.7-0.6,3.3-1.3,4.9-2.2
		c1.2,3.9,6.1,15.9,8.6,21.7c3.3,7.2,6.3,14.4,9.7,22c1.7,0.1,3.3,0.4,4.9,0.8c0.2,0.1,0.4,0.3,0.5,0.5c0,0.3-0.2,0.6-0.6,0.7
		c0,0,0,0-0.1,0c-0.4,0-3.5-0.4-7.9-0.4c-5,0-8.4,0.4-8.8,0.4c-0.3,0-0.6-0.2-0.7-0.6c0,0,0,0,0-0.1c0-0.3,0.2-0.5,0.5-0.5
		c2.2-0.4,4.3-0.7,6.5-0.8c-0.9-2.4-3-8.1-4.4-11.5L13.2,39.9z M28.8,38.4C26.2,32,23.1,25,21.1,19.9c-2.4,5.8-6.7,16.3-7.4,18.4
		L28.8,38.4z"/>
	<path class="st0" d="M82.2,39.1c0,0.3-0.2,0.5-0.5,0.5c-0.7,0-1.1-2.7-1.2-3.8c-2-1.6-4.4-2.6-6.9-2.8c-2.4,0-5,1.5-5,3.7
		c0,3.4,4.6,2.6,9,3.4c2.2,0.5,5.6,1.9,5.6,5.9c0,5-4,7.7-9.3,7.7c-1.9,0-3.7-0.3-5.4-1c-0.3,1.1-0.5,2.5-1.2,2.5
		c-0.3,0-0.4-0.2-0.4-0.5c0-0.6,0.3-2.4,0.3-5.1c0-1.9-0.2-3.4-0.2-4.2c0-0.4,0.1-0.7,0.5-0.7c0.8,0,1.1,2.8,1.3,4.3
		c2.2,1.5,4.7,2.4,7.4,2.4c2.9,0,5.3-1.6,5.3-3.9c0-3.9-5.9-2.2-10.4-3.9c-2.5-0.8-4.2-3.1-4.2-5.7c0-4.1,3.5-6.7,8.1-6.7
		c2-0.1,4,0.4,5.8,1.4c0.4-1.1,0.7-2.3,1.3-2.3c0.3,0,0.4,0.1,0.4,0.5c-0.2,1.4-0.4,2.9-0.5,4.4C82,36.5,82,37.8,82.2,39.1z"/>
	<path class="st0" d="M127.9,34c-2.5-0.1-5.4-0.5-8.5-0.5c0,1.6-0.2,4.8-0.2,7.2c0,2.4,0,5.6,0.1,7.5c0.1,1.5,0.7,2.6,3.4,2.6
		c2.9,0,4.1-2.5,5-2.5c0.3,0,0.6,0.2,0.6,0.5c0,0,0,0,0,0.1c0,1.3-3.7,4.8-7.5,4.8c-4.6,0-5.5-2.8-5.5-7.3c0-3.7,0.2-11.3,0.2-12.9
		c-1.7,0-3.4,0.1-5.1,0.4v-2.2c0.9,0.1,1.7,0.2,2.5,0.3c0.8,0.1,1.7,0.1,2.6,0.1V19.4h4.4c-0.3,4.3-0.4,10.4-0.4,12.6
		c2.8,0,5.7-0.1,8.5-0.5L127.9,34z"/>
	<path class="st0" d="M164.1,52.9c-2,0-3.9,0.2-5.9,0.4c-0.3,0-0.7-0.1-0.7-0.5c0-0.4,0.2-0.6,0.7-0.7c1.2-0.3,2.5-0.6,3.8-0.8
		c0.1-1.7,0.2-6.6,0.2-8.5s-0.1-7.3-0.1-9.1c-1.1,0-3,0.1-4.4,0.1c-0.2,0-0.5-0.1-0.5-0.4c0,0,0-0.1,0-0.1c0-0.7,1.5-0.8,4.1-1.4
		c2.6-0.6,4.2-1.2,4.6-1.2s0.5,0.3,0.5,0.9c0,0.6-0.1,1.3-0.1,2.1c-0.1,1.8-0.1,7-0.1,9.1s0,6.8,0.2,8.5c1.3,0.2,2.5,0.4,3.7,0.8
		c0.5,0.1,0.7,0.3,0.7,0.7c0,0.4-0.4,0.5-0.7,0.5C168.1,53.1,166.1,53,164.1,52.9z M163.7,21.1c-1.7,0-3-1.4-3-3.1s1.4-3,3.1-3
		c1.7,0,3,1.4,3,3.1C166.7,19.7,165.3,21.1,163.7,21.1z"/>
	<path class="st1" d="M219.2,12.6c2-0.2,3.6-1.9,3.6-4v0c0-2.2-1.8-4-4-4h0c-2.2,0-4,1.8-4,4.1c0,2.1,1.6,3.8,3.6,4
		c-1.2,12.2-4.3,32.6-4.3,32.6s-3-3.3-10.8-22.1l4.6,32.4c0-2.8,21.9-2.8,21.9,0l4.6-32.4c-7.8,18.9-10.8,22.1-10.8,22.1
		S220.3,24.8,219.2,12.6z M205.6,19.3L205.6,19.3c0-2.2-1.8-4-4-4h0c-2.2,0-4,1.8-4,4.1c0,2.2,1.8,4,4.1,4
		C203.8,23.4,205.6,21.5,205.6,19.3z M236,15.3L236,15.3c-2.2,0-4,1.8-4.1,4c0,2.2,1.8,4,4,4.1c2.2,0,4-1.8,4.1-4
		C240,17.1,238.2,15.3,236,15.3z"/>
</g>
</svg>
